<svg width="43" height="43" viewBox="0 0 43 43" fill="none" xmlns="http://www.w3.org/2000/svg">
<g filter="url(#filter0_d)">
<g clip-path="url(#clip0)">
<path d="M15.0475 32.3601L9.07999 35.6152C8.7298 35.8061 8.41508 36.0408 8.12225 36.2967C11.6015 39.2303 16.0928 41.0001 21 41.0001C25.8709 41.0001 30.3336 39.2567 33.803 36.3631C33.483 36.0929 33.1358 35.8499 32.7509 35.6582L26.3607 32.4635C25.5351 32.0506 25.0136 31.2069 25.0136 30.2839V27.7767C25.1932 27.5722 25.3985 27.3095 25.6181 26.9993C26.489 25.7691 27.1479 24.4159 27.6045 22.9963C28.4241 22.7435 29.0279 21.9865 29.0279 21.0869V18.4106C29.0279 17.822 28.766 17.2959 28.3592 16.9276V13.059C28.3592 13.059 29.154 7.03857 21.0007 7.03857C12.8475 7.03857 13.6423 13.059 13.6423 13.059V16.9276C13.2347 17.2959 12.9736 17.822 12.9736 18.4106V21.0869C12.9736 21.7918 13.3441 22.4122 13.8989 22.7707C14.5675 25.6816 16.3185 27.7767 16.3185 27.7767V30.222C16.3177 31.1125 15.8302 31.9329 15.0475 32.3601Z" fill="#E7ECED"/>
<path d="M21.3419 1.00298C10.2981 0.814299 1.19172 9.6143 1.00304 20.6581C0.895871 26.92 3.68681 32.5479 8.13059 36.2905C8.42115 36.0369 8.73285 35.8045 9.07927 35.6158L15.0468 32.3607C15.8295 31.9335 16.317 31.1132 16.317 30.2211V27.7758C16.317 27.7758 14.5653 25.6807 13.8974 22.7698C13.3434 22.4113 12.9721 21.7917 12.9721 21.086V18.4098C12.9721 17.8211 13.234 17.2951 13.6408 16.9268V13.0581C13.6408 13.0581 12.8461 7.03769 20.9993 7.03769C29.1525 7.03769 28.3578 13.0581 28.3578 13.0581V16.9268C28.7653 17.2951 29.0264 17.8211 29.0264 18.4098V21.086C29.0264 21.9856 28.4227 22.7426 27.603 22.9954C27.1464 24.4151 26.4876 25.7683 25.6166 26.9984C25.397 27.3086 25.1917 27.5713 25.0121 27.7758V30.283C25.0121 31.206 25.5336 32.0505 26.3593 32.4626L32.7495 35.6573C33.1329 35.849 33.4793 36.0913 33.7985 36.3607C38.1079 32.7668 40.8921 27.3932 40.9955 21.3418C41.1857 10.2981 32.3864 1.19166 21.3419 1.00298Z" fill="#C0C0C0"/>
</g>
</g>
<defs>
<filter id="filter0_d" x="0.5" y="0.5" width="42" height="42" filterUnits="userSpaceOnUse" color-interpolation-filters="sRGB">
<feFlood flood-opacity="0" result="BackgroundImageFix"/>
<feColorMatrix in="SourceAlpha" type="matrix" values="0 0 0 0 0 0 0 0 0 0 0 0 0 0 0 0 0 0 127 0"/>
<feOffset dx="0.5" dy="0.5"/>
<feGaussianBlur stdDeviation="0.5"/>
<feColorMatrix type="matrix" values="0 0 0 0 0 0 0 0 0 0 0 0 0 0 0 0 0 0 0.15 0"/>
<feBlend mode="normal" in2="BackgroundImageFix" result="effect1_dropShadow"/>
<feBlend mode="normal" in="SourceGraphic" in2="effect1_dropShadow" result="shape"/>
</filter>
<clipPath id="clip0">
<rect x="1" y="1" width="40" height="40" fill="white"/>
</clipPath>
</defs>
</svg>
