<svg width="16" height="16" viewBox="0 0 16 16" fill="none" xmlns="http://www.w3.org/2000/svg">
<g clip-path="url(#clip0)">
<path d="M9.4139 7.08556C10.195 7.86664 10.195 9.133 9.4139 9.91407C8.63282 10.6951 7.36646 10.6951 6.58538 9.91407C5.80431 9.133 5.80431 7.86664 6.58538 7.08556C7.36646 6.30449 8.63282 6.30449 9.4139 7.08556Z" fill="white"/>
<path d="M14 3.00007H12.6181L11.6176 1H4.38149L3.38193 3.00105L2.00201 3.00351C0.901884 3.00547 0.00632579 3.90198 0.00537586 5.0026L3.8147e-06 12.9999C3.8147e-06 14.103 0.897003 15.0005 2.00007 15.0005H14C15.103 15.0005 16 14.1035 16 13.0004V5.00011C16 3.89707 15.103 3.00007 14 3.00007ZM7.99976 12.5004C5.79411 12.5004 3.99962 10.7059 3.99962 8.50022C3.99962 6.29457 5.79411 4.50008 7.99976 4.50008C10.2054 4.50008 11.9999 6.29457 11.9999 8.50022C11.9999 10.7059 10.2054 12.5004 7.99976 12.5004Z" fill="white"/>
</g>
<defs>
<clipPath id="clip0">
<rect width="16" height="16" fill="white"/>
</clipPath>
</defs>
</svg>

